/* XPM */
static char *d61623f56ec54afcdfdd225746d0d255[] = {
/* columns rows colors chars-per-pixel */
"64 64 191 2 ",
"   c #7E26B0",
".  c #7F26B0",
"X  c #7B2AB1",
"o  c #7B2BB2",
"O  c #7C2BB2",
"+  c #7635B5",
"@  c #7636B6",
"#  c #7930B3",
"$  c #7931B4",
"%  c #7A31B4",
"&  c #733AB6",
"*  c #733BB7",
"=  c #703FB8",
"-  c #703FB9",
";  c #6E44BA",
":  c #6E44BB",
">  c #6B49BC",
",  c #6B49BD",
"<  c #684FBE",
"1  c #6554C0",
"2  c #6359C2",
"3  c #605EC3",
"4  c #5E62C5",
"5  c #5B67C6",
"6  c #566FCA",
"7  c #596BC8",
"8  c #5474CB",
"9  c #5278CD",
"0  c #507CCE",
"q  c #4D7FD0",
"w  c #8D0BA6",
"e  c #9005A4",
"r  c #8716AA",
"t  c #8A10A8",
"y  c #841BAC",
"u  c #8121AE",
"i  c #3E9CD9",
"p  c #3F9DDA",
"a  c #3C9FDA",
"s  c #3E9EDB",
"d  c #3AA3DB",
"f  c #3DA0DB",
"g  c #3BA3DC",
"h  c #3CA2DD",
"j  c #3BA4DC",
"k  c #39A6DD",
"l  c #39A7DE",
"z  c #3AA7DE",
"x  c #37AADE",
"c  c #37ABDF",
"v  c #33AEDD",
"b  c #35ADDF",
"n  c #38ABDF",
"m  c #35AFE0",
"M  c #36AEE0",
"N  c #36AFE1",
"B  c #35AFE2",
"V  c #2FBAE5",
"C  c #2FBBE7",
"Z  c #2BBEE6",
"A  c #2CBDE5",
"S  c #2EBDE6",
"D  c #2DBEE6",
"F  c #2DBEE7",
"G  c #2CBFE7",
"H  c #2EBEE8",
"J  c #33B0E0",
"K  c #31B2E0",
"L  c #33B3E3",
"P  c #34B1E1",
"I  c #35B0E2",
"U  c #30B5E2",
"Y  c #32B4E2",
"T  c #33B4E4",
"R  c #31B7E4",
"E  c #31B7E5",
"W  c #32B6E4",
"Q  c #32B6E5",
"!  c #30B9E6",
"~  c #4B83D1",
"^  c #4D80D0",
"/  c #4B84D1",
"(  c #4987D2",
")  c #478BD3",
"_  c #478CD4",
"`  c #458FD4",
"'  c #4988D3",
"]  c #4393D6",
"[  c #4590D5",
"{  c #4394D7",
"}  c #4197D7",
"|  c #4198D8",
" . c #1ED9EE",
".. c #1ED9EF",
"X. c #1CDBEF",
"o. c #1FD8F0",
"O. c #1FD9F1",
"+. c #1EDAF0",
"@. c #19DFF0",
"#. c #1BDFF3",
"$. c #1DDCF1",
"%. c #1DDDF2",
"&. c #1EDCF2",
"*. c #1CDEF2",
"=. c #1CDEF3",
"-. c #1CDFF3",
";. c #2AC0E5",
":. c #28C2E5",
">. c #28C6E7",
",. c #2AC2E8",
"<. c #2AC3E9",
"1. c #2CC0E9",
"2. c #2CC1E9",
"3. c #29C4E8",
"4. c #29C5E9",
"5. c #26CAEA",
"6. c #26CAEB",
"7. c #24CCEA",
"8. c #26CBEC",
"9. c #25CDEC",
"0. c #25CEEC",
"q. c #25CEED",
"w. c #25CEEE",
"e. c #28C8EA",
"r. c #28C8EB",
"t. c #22D1EB",
"y. c #23D0ED",
"u. c #23D1EE",
"i. c #22D3EE",
"p. c #23D2EF",
"a. c #24D0EE",
"s. c #20D5EF",
"d. c #22D4EF",
"f. c #20D6F0",
"g. c #20D7F0",
"h. c #17E5F4",
"j. c #17E6F5",
"k. c #17E7F6",
"l. c #1AE0F3",
"z. c #19E2F3",
"x. c #1AE1F4",
"c. c #19E3F4",
"v. c #1AE3F4",
"b. c #18E4F4",
"n. c #18E5F5",
"m. c #15E9F4",
"M. c #16E8F5",
"N. c #16E9F6",
"B. c #16EAF7",
"V. c #12EDF6",
"C. c #15ECF7",
"Z. c #13EEF8",
"A. c #13EFF8",
"S. c #13EFF9",
"D. c #15ECF8",
"F. c #14EDF8",
"G. c #0FF5FA",
"H. c #0DF7FA",
"J. c #0FF6FA",
"K. c #0FF6FB",
"L. c #0FF7FB",
"P. c #0BFAFB",
"I. c #0BFBFB",
"U. c #0DF8FA",
"Y. c #0DF9FB",
"T. c #0EF8FB",
"R. c #0BFBFC",
"E. c #0DF9FC",
"W. c #0EF8FC",
"Q. c #0EF9FC",
"!. c #0CFAFC",
"~. c #0DFAFC",
"^. c #0CFBFC",
"/. c #0DFAFD",
"(. c #0DFBFD",
"). c #0BFCFC",
"_. c #0BFCFD",
"`. c #0BFDFD",
"'. c #0BFDFE",
"]. c #0BFEFE",
"[. c #0CFCFD",
"{. c #0CFCFE",
"}. c #0CFDFE",
"|. c #11F0F8",
" X c #12F0F9",
".X c #12F1F9",
"XX c #11F3FA",
"oX c #12F2FA",
"OX c #10F4FA",
"+X c #10F5FB",
"@X c None",
/* pixels */
"@X@X@X@X@X@X@X@X@X@X@X@X@X@X@X@X@X@X@X@X@X@X@X@X@X@X@X@X@X@X@X@X@X@X@X@X@X@X@X@X@X@X@X@X@X@X@X].].].@X@X@X@X@X@X@X@X@X@X@X@X@X@X",
"@X@X@X@X@X@X@X@X@X@X@X@X@X@X@X@X@X@X@X@X@X@X@X@X@X@X@X@X@X@X@X@X@X@X@X@X@X@X@X@X@X@X@X@X@X@X].].].].].@X@X@X@X@X@X@X@X@X@X@X@X@X",
"@X@X@X@X@X@X@X@X@X@X@X@X@X@X@X@X@X@X@X@X@X@X@X@X@X@X@X@X@X@X@X@X@X@X@X@X@X@X@X@X@X@X@X@X@X@X].].].].].].@X@X@X@X@X@X@X@X@X@X@X@X",
"@X@X@X@X@X@X@X@X@X@X@X@X@X@X@X@X@X@X@X@X@X@X@X@X@X@X@X@X@X@X@X@X@X@X@X@X@X@X@X@X@X@X@X@X@X@X].].].].].].@X@X@X@X@X@X@X@X@X@X@X@X",
"@X@X@X@X@X@X@X@X@X@X@X@X@X@X@X@X@X@X@X@X@X@X@X@X@X@X@X@X@X@X@X@X@X@X@X@X@X@X@X@X@X@X@X@X@X@X].].].].].@X@X@X@X@X@X@X@X@X@X@X@X@X",
"@X@X@X@X@X@X@X@X@X@X@X@X@X@X@X@X@X@X@X@X@X@X@X@X@X@X@X@X@X@X@X@X@X@X@X@X@X@X@X@X@X@X@X@X@X@X@X].].].@X@X@X@X@X@X@X@X@X@X@X@X@X@X",
"@X@X@X@X@X@X@X@X@X@X@X@X@X@X@X@X@X@X@X@X@X@X@X@X@X@X@X@XW.W.W.[.[.[.[.[.].].@X@X@X@X@X@X@X@X@X@X@X@X@X@X@X@X@X@X@X@X@X@X@X@X@X@X",
"@X@X@X@X@X@X@X@X@X@X@X@X@X@X@X@X@X@X@X@X@X@X@X@X@X+X+X+XL.W.W.[.[.W.[.[.[.].[.[.].@X@X@X@X@X@X@X@X@X@X@X@X@X@X@X@X@X@X@X@X@X@X@X",
"@X@X@X@X@X@X@X@X@X@X@X@X@X@X@X@X@X@X@X@X@X@X@XF.oXoXoXL.L.L.W.W.W.[.W.[.[.[.[.].].].@X@X@X@X@X@X@X@X@X@X@X@X@X@X@X@X@X@X@X@X@X@X",
"@X@X@X@X@X@X@X@X@X@X@X@X@X@X@X@X@X@X@X@X@XN.C.F.Z.Z.oX+X+XL.L.W.W.[.[.[.[.[.[.[.].].].].@X@X@X@X@X@X@X@X@X@X@X@X@X@X@X@X@X@X@X@X",
"@X@X@X@X@X@X@X@X@X@X@X@X@X@X@X@X@X@X@X@Xk.N.N.C.Z.Z.Z.oXoX+XL.L.W.W.W.[.[.[.[.[.].].].].].@X@X@X@X@X@X@X@X@X@X@X@X@X@X@X@X@X@X@X",
"@X@X@X@X@X@X@X@X@X@X@X@X@X@X@X@X@X@X@Xv.n.k.N.D.D.Z.Z.oXoXoX+XL.L.W.W.W.[.[.[.[.[.].].].].].@X@X@X@X@X@X@X@X@X@X@X@X@X@X@X@X@X@X",
"@X@X@X@X@X@X@X@X@X@X@X@X@X@X@X@X@X@Xl.l.l.M.M.M.D.D.F.Z.@X@X@X@X@X@X@X@X@XQ.W.[.W.].].].].].].@X@X@X@X@X@X@X@X@X@X@X@X@X@X@X@X@X",
"@X@X@X@X@X@X@X@X@X@X@X@X@X@X@X@X@Xo.*.*.l.l.l.k.k.N.@X@X@X@X@X@X@X@X@X@X@X@X@XQ.[.[.[.].].].].].@X@X@X@X@X@X@X@X@X@X@X@X@X@X@X@X",
"@X@X@X@X@X@X@X@X@X@X@X@X@X@X@X@X@Xo.o.*.*.l.l.k.@X@X@X@X@X@X@X@X@X@X@X@X@X@X@X@X@X[.[.[.].].].].].@X@X@X@X@X@X@X@X@X@X@X@X@X@X@X",
"@X@X@X@X@X@X@X@X@X@X@X@X@X@X@X@Xi.i.o. .X.*.l.@X@X@X@X@X@X@X@X@X@X@X@X@X@X@X@X@X@X@X[.[.[.].].].].@X@X@X@X@X@X@X@X@X@X@X@X@X@X@X",
"@X@X@X@X@X@X@X@X@X@X@X@X@X@X@X7.u.i.g.o.o.*.@X@X@X@X@X@X@X@X@X@X@X@X@X@X@X@X@X@X@X@X@X[.[.[.].[.].].@X@X@X@X@X@X@X@X@X@X@X@X@X@X",
"@X@X@X@X@X@X@X@X@X@X@X@X@X@X@X5.7.u.i.i.o. .@X@X@X@X@X@X@X@X@X@X@X@X@X@X@X@X@X@X@X@X@X@X[.[.[.[.].].@X@X@X@X@X@X@X@X@X@X@X@X@X@X",
"@X@X@X@X@X@X@X@X@X@X@X@X@X@X@X5.5.q.u.u.i.@X@X@X@X@X@X@X@X@X@X@X@X@X@X@X@X@X@X@X@X@X@X@XW.].[.[.{.].].@X@X@X@X@X@X@X@X@X@X@X@X@X",
"@X@X@X@X@X@X@X@X@X@X@X@X@X@X<.<.r.5.7.u.@X@X@X@X@X@X@X@X@X@X@X@X@X@X@X@X@X@X@X@X@X@X@X@X@X[.[.[.].].].@X@X@X@X@X@X@X@X@X@X@X@X@X",
"@X@X@X@X@X@X@X@X@X@X@X@X@X@X1.<.<.r.5.q.@X@X@X@X@X@X@X@X@X@X@X@X@X@X@X@X@X@X@X@X@X@X@X@X@XW.[.[.W.].].@X@X@X@X@X@X@X@X@X@X@X@X@X",
"@X@X@X@X@X@X@X@X@X@X@X@X@X@XV ,.3.<.r.7.@X@X@X@X@X@X@X@X@X@X@X@X@X@X@X@X@X@X@X@X@X@X@X@X@X@X[.[.W.].].{.@X@X@X@X@X@X@X@X@X@X@X@X",
"@X@X@X@X@X@X@X@X@X@X@X@X@XY V V 1.,.<.@X@X@X@X@X@X@X@X@X@X@X@X@X@X@X@X@X@X@X@X@X@X@X@X@X@X@XW.[.[.].[.[.@X@X@X@X@X@X@X@X@X@X@X@X",
"@X@X@X@X@X@X@X@X@X@X@X@X@XY R V A 1.<.@X@X@X@X@X@X@X@X@X@X@X@X@X@X@X@X@X@X@X@X@X@X@X@X@X@X@XW.W.W.[.[.[.@X@X@X@X@X@X@X@X@X@X@X@X",
"@X@X@X@X@X@X@X@X@X@X@X@X@XJ Y R V V 1.@X@X@X@X@X@X@X@X@X@X@X@X@X@X@X@X@X@X@X@X@X@X@X@X@X@X@XW.W.[.W.[.[.@X@X@X@X@X@X@X@X@X@X@X@X",
"@X@X@X@X@X@X@X@X@X@X@X@X@Xb P Y V V S @X@X@X@X@X@X@X@X@X@X@X@X@X@X@X@X@X@X@X@X@X@X@X@X@X@X@XL.W.W.[.W.[.@X@X@X@X@X@X@X@X@X@X@X@X",
"@X@X@X@X@X@X@X@X@X@X@X@X@Xz M P Y R R @X@X@X@X@X@X@X@X@X@X@X@X@X@X@X@X@X@X@X@X@X@X@X@X@X@X@XL.L.W.W.[.W.@X@X@X@X@X@X@X@X@X@X@X@X",
"@X@X@X@X@X@X@X@X@X@X@X@X@Xz n M P Y R @X@X@X@X@X@X@X@X@X@X@X@X@X@X@X@X@X@X@X@X@X@X@X@X@X@X@X+XL.L.W.W.W.@X@X@X@X@X@X@X@X@X@X@X@X",
"@X@X@X@X@X@X@X@X@X@X@X@X@Xd z n P P Y Y @X@X@X@X@X@X@X@X@X@X@X@X@X@X@X@X@X@X@X@X@X@X@X@X@X@XoXL.L.Q.Q.Q.@X@X@X@X@X@X@X@X@X@X@X@X",
"@X@X@X@X@X@X@X@X@X@X@X@X@Xa j z n n P Y @X@X@X@X@X@X@X@X@X@X@X@X@X@X@X@X@X@X@X@X@X@X@X@X@XV.oXoX+X+XQ.Q.@X@X@X@X@X@X@X@X@X@X@X@X",
"@X@X@X@X@X@X@X@X@X@X@X@X@Xa a j z n P P @X@X@X@X@X@X@X@X@X@X@X@X@X@X@X@X@X@X@X@X@X@X@X@X@XZ.Z.oXoXL.L.P.@X@X@X@X@X@X@X@X@X@X@X@X",
"@X@X@X@X@X@X@X@X@X@X@X@X@X} | h j z z P P @X@X@X@X@X@X@X@X@X@X@X@X@X@X@X@X@X@X@X@X@X@X@XN.F.oXZ.oXoXL.).@X@X@X@X@X@X@X@X@X@X@X@X",
"@X@X@X@X@X@X@X@X@X@X@X@X@X{ | | h j q.F.*.@X@X@X@X@X@X@X@X@X@X@X@X@X@X@X@X@X@X@X@X@X@X@XN.C.F.F.oXoXQ.].@X@X@X@X@X@X@X@X@X@X@X@X",
"@X@X@X@X@X@X@X@X@X@X@X@X@X[ { | | =.[.W.W.W.@X@X@X@X@X@X@X@X@X@X@X@X@X@X@X@X@X@X@X@X@Xn.N.N.F.F.F.oXP.P.@X@X@X@X@X@X@X@X@X@X@X@X",
"@X@X@X@X@X@X@X@X@X@X@X@X@X_ [ { j F.F.D.F.F.v.@X@X@X@X@X@X@X@X@X@X@X@X@X@X@X@X@X@X@X@.M.N.N.D.N.C.L.].P.@X@X@X@X@X@X@X@X@X@X@X@X",
"@X@X@X@X@X@X@X@X@X@X@X@X@X' _ [ n =.=.=.=.=.*.O.@X@X@X@X@X@X@X@X@X@X@X@X@X@X@X@X@X@.*.l.n.n.N.D.V.).).).@X@X@X@X@X@X@X@X@X@X@X@X",
"@X@X@X@X@X@X@X@X@X@X@X@X@X~ ' _ ` a.p.p.p.p.p.p.u.,.@X@X@X@X@X@X@X@X@X@X@X@X@X@X*.o.l.*.l.M.k.N.Q.].).).@X@X@X@X@X@X@X@X@X@X@X@X",
"@X@X@X@X@X@X@X@X@X@X@X@X@Xq / ' _ | r.r.r.r.r.r.r.r.<.Z @X@X@X@X@X@X@X@X@X@Xt.i.o.o.*.*.l.v.v.+X).).).).@X@X@X@X@X@X@X@X@X@X@X@X",
"@X@X@X@X@X@X@X@X@X@X@X@X@X0 ^ ~ ' _ h 2.2.2.2.2.2.2.2.2.,.H H H @X@X>.>.5.q.t.g.g.o. .*.l.l.|.).).).).).@X@X@X@X@X@X@X@X@X@X@X@X",
"@X@X@X@X@X@X@X@X@X@X@X@X@X9 0 q ~ _ _ M H H H H H H H H H H H H 2.V <.<.<.5.q.q.i.i.O.o.*.@X).).).).).).@X@X@X@X@X@X@X@X@X@X@X@X",
"@X@X@X@X@X@X@X@X@X@X@X@X@X8 9 q q ~ ' @X@XQ H H ! H ! H ! ! ! ! H V ,.,.<.r.7.7.u.d.g.O.@X@X^.).).).).).@X@X@X@X@X@X@X@X@X@X@X@X",
"@X@X@X@X@X@X@X@X@X@X@X@X@X6 8 9 q q / @X@X@XN Q ! ! ! ! ! ! ! ! R C 1.V 3.<.r.7.q.u.u.@X@X@X^.).).).).).@X@X@X@X@X@X@X@X@X@X@X@X",
"@X@X@X@X@X@X@X@X@X@X@X@X@X7 6 8 8 q q @X@X@X@X@XM Q Q Q ! Q Q Q R R V V V 3.<.r.q.@X@X@X@X@X^.^.).).P.P.@X@X@X@X@X@X@X@X@X@X@X@X",
"@X@X@X@X@X@X@X@X@X@X@X@X@X5 7 6 8 9 9 @X@X@X@X@X@X@Xn P Q T T T Y Y R V A ,.,.@X@X@X@X@X@X@X@X[.).).].@X@X@X@X@X@X@X@X@X@X@X@X@X",
"@X@X@X@X@X@X@X@X@X@X@X@X@X4 5 7 6 8 9 @X@X@X@X@X@X@X@X@X@X@X@XP P b @X@X@X@X@X@X@X@X@X@X@X@X@X@X@X@X@X@X@X@X@X@X@X@X@X@X@X@X@X@X",
"@X@X@X@X@X@X@X@X@X@X@X@X@X3 4 5 7 6 8 @X@X@X@X@X@X@X@X@X@X@X@X@X@X@X@X@X@X@X@X@X@X@X@X@X@X@X@X@X@X@X@X@X@X@X@X@X@X@X@X@X@X@X@X@X",
"@X@X@X@X@X@X@X@X@X@X@X@X@X2 3 4 5 7 6 @X@X@X@X@X@X@X@X@X@X@X@X@X@X@X@X@X@X@X@X@X@X@X@X@X@X@X@X@X@X@X@X@X@X@X@X@X@X@X@X@X@X@X@X@X",
"@X@X@X@X@X@X@X@X@X@X@X@X@X1 2 3 4 5 7 @X@X@X@X@X@X@X@X@X@X@X@X@X@X@X@X@X@X@X@X@X@X@X@X@X@X@X@X@X@X@X@X@X@X@X@X@X@X@X@X@X@X@X@X@X",
"@X@X@X@X@X@X@X@X@X@X@X@X@X< 1 2 3 4 5 @X@X@X@X@X@X@X@X@X@X@X@X@X@X@X@X@X@X@X@X@X@X@X@X@X@X@X@X@X@X@X@X@X@X@X@X@X@X@X@X@X@X@X@X@X",
"@X@X@X@X@X@X@X@X@X@X@X@X@X, < 1 2 3 4 @X@X@X@X@X@X@X@X@X@X@X@X@X@X@X@X@X@X@X@X@X@X@X@X@X@X@X@X@X@X@X@X@X@X@X@X@X@X@X@X@X@X@X@X@X",
"@X@X@X@X@X@X@X@X@X@X@X@X@X; , < 1 2 3 @X@X@X@X@X@X@X@X@X@X@X@X@X@X@X@X@X@X@X@X@X@X@X@X@X@X@X@X@X@X@X@X@X@X@X@X@X@X@X@X@X@X@X@X@X",
"@X@X@X@X@X@X@X@X@X@X@X@X@X- ; , < 1 2 @X@X@X@X@X@X@X@X@X@X@X@X@X@X@X@X@X@X@X@X@X@X@X@X@X@X@X@X@X@X@X@X@X@X@X@X@X@X@X@X@X@X@X@X@X",
"@X@X@X@X@X@X@X@X@X@X@X@X@X& - ; , < 1 @X@X@X@X@X@X@X@X@X@X@X@X@X@X@X@X@X@X@X@X@X@X@X@X@X@X@X@X@X@X@X@X@X@X@X@X@X@X@X@X@X@X@X@X@X",
"@X@X@X@X@X@X@X@X@X@X@X@X@X+ * - : , < @X@X@X@X@X@X@X@X@X@X@X@X@X@X@X@X@X@X@X@X@X@X@X@X@X@X@X@X@X@X@X@X@X@X@X@X@X@X@X@X@X@X@X@X@X",
"@X@X@X@X@X@X@X@X@X@X@X@X@X$ + * - : , @X@X@X@X@X@X@X@X@X@X@X@X@X@X@X@X@X@X@X@X@X@X@X@X@X@X@X@X@X@X@X@X@X@X@X@X@X@X@X@X@X@X@X@X@X",
"@X@X@X@X@X@X@X@X@X@X@X@X@XO % + & - : @X@X@X@X@X@X@X@X@X@X@X@X@X@X@X@X@X@X@X@X@X@X@X@X@X@X@X@X@X@X@X@X@X@X@X@X@X@X@X@X@X@X@X@X@X",
"@X@X@X@X@X@X@X@X@X@X@X@X@Xu O + @ * ; @X@X@X@X@X@X@X@X@X@X@X@X@X@X@X@X@X@X@X@X@X@X@X@X@X@X@X@X@X@X@X@X@X@X@X@X@X@X@X@X@X@X@X@X@X",
"@X@X@X@X@X@X@X@X@X@X@X@X@Xu u O $ @ & @X@X@X@X@X@X@X@X@X@X@X@X@X@X@X@X@X@X@X@X@X@X@X@X@X@X@X@X@X@X@X@X@X@X@X@X@X@X@X@X@X@X@X@X@X",
"@X@X@X@X@X@X@X@X@X@X@X@X@Xy u u o $ @ @X@X@X@X@X@X@X@X@X@X@X@X@X@X@X@X@X@X@X@X@X@X@X@X@X@X@X@X@X@X@X@X@X@X@X@X@X@X@X@X@X@X@X@X@X",
"@X@X@X@X@X@X@X@X@X@X@X@X@Xr u u . o $ @X@X@X@X@X@X@X@X@X@X@X@X@X@X@X@X@X@X@X@X@X@X@X@X@X@X@X@X@X@X@X@X@X@X@X@X@X@X@X@X@X@X@X@X@X",
"@X@X@X@X@X@X@X@X@X@X@X@X@Xt r y u . O @X@X@X@X@X@X@X@X@X@X@X@X@X@X@X@X@X@X@X@X@X@X@X@X@X@X@X@X@X@X@X@X@X@X@X@X@X@X@X@X@X@X@X@X@X",
"@X@X@X@X@X@X@X@X@X@X@X@X@Xw t r y u . @X@X@X@X@X@X@X@X@X@X@X@X@X@X@X@X@X@X@X@X@X@X@X@X@X@X@X@X@X@X@X@X@X@X@X@X@X@X@X@X@X@X@X@X@X",
"@X@X@X@X@X@X@X@X@X@X@X@X@X@Xw t r y u @X@X@X@X@X@X@X@X@X@X@X@X@X@X@X@X@X@X@X@X@X@X@X@X@X@X@X@X@X@X@X@X@X@X@X@X@X@X@X@X@X@X@X@X@X",
"@X@X@X@X@X@X@X@X@X@X@X@X@X@Xe w t r @X@X@X@X@X@X@X@X@X@X@X@X@X@X@X@X@X@X@X@X@X@X@X@X@X@X@X@X@X@X@X@X@X@X@X@X@X@X@X@X@X@X@X@X@X@X"
};
