/* XPM */
static char *b7b8bd6c96b1450ebe0b2bb464aa93fb[] = {
/* columns rows colors chars-per-pixel */
"32 32 100 2 ",
"   c #7A2AB0",
".  c #7B2BB2",
"X  c #7C2BB2",
"o  c #6F3FB7",
"O  c #7535B4",
"+  c #7636B6",
"@  c #703FB9",
"#  c #6A49BB",
"$  c #6B49BD",
"%  c #6454BF",
"&  c #5F5EC2",
"*  c #6554C0",
"=  c #605EC3",
"-  c #5B66C5",
";  c #5B67C6",
":  c #566EC9",
">  c #566FCA",
",  c #4D7FCF",
"<  c #5277CC",
"1  c #5278CD",
"2  c #8D0BA6",
"3  c #8716AA",
"4  c #8121AE",
"5  c #3C9EDA",
"6  c #3DA0DB",
"7  c #3CA1DC",
"8  c #39A5DC",
"9  c #3AA7DE",
"0  c #37A9DE",
"q  c #36ADE0",
"w  c #36ADE1",
"e  c #36AEE0",
"r  c #2EB9E4",
"t  c #2FBAE5",
"y  c #2FBBE6",
"u  c #2FBBE7",
"i  c #2BBEE5",
"p  c #2CBFE7",
"a  c #2CBFE8",
"s  c #35B0E2",
"d  c #32B4E2",
"f  c #33B4E4",
"g  c #32B5E4",
"h  c #32B6E5",
"j  c #30B9E6",
"k  c #4D80D0",
"l  c #4987D2",
"z  c #458FD4",
"x  c #4988D3",
"c  c #4590D5",
"v  c #4197D7",
"b  c #4198D8",
"n  c #1FD9F1",
"m  c #1EDAF0",
"M  c #1CDEF2",
"N  c #1CDFF3",
"B  c #2BC0E7",
"V  c #2CC1E9",
"C  c #28C4E8",
"Z  c #29C5E8",
"A  c #29C5E9",
"S  c #25C9E9",
"D  c #26CAEB",
"F  c #25CEED",
"G  c #23D0ED",
"H  c #20D2EC",
"J  c #23D1EE",
"K  c #23D2EF",
"L  c #20D5EF",
"P  c #20D6F0",
"I  c #17E6F5",
"U  c #17E7F6",
"Y  c #19E2F3",
"T  c #19E3F4",
"R  c #1AE3F4",
"E  c #1AE4F5",
"W  c #16E8F6",
"Q  c #16EAF7",
"!  c #14ECF7",
"~  c #15ECF8",
"^  c #14EDF8",
"/  c #0EF7FA",
"(  c #0FF6FB",
")  c #0BFBFB",
"_  c #0DF9FB",
"`  c #0DF9FC",
"'  c #0EF8FC",
"]  c #0CFAFC",
"[  c #0DFAFC",
"{  c #0CFBFC",
"}  c #0DFBFD",
"|  c #0BFCFC",
" . c #0BFDFD",
".. c #0BFDFE",
"X. c #0BFEFE",
"o. c #0CFCFD",
"O. c #12F0F9",
"+. c #11F2F9",
"@. c #11F3FA",
"#. c None",
/* pixels */
"#.#.#.#.#.#.#.#.#.#.#.#.#.#.#.#.#.#.#.#.#.#.#.#.X.#.#.#.#.#.#.#.",
"#.#.#.#.#.#.#.#.#.#.#.#.#.#.#.#.#.#.#.#.#.#.#.X.X.X.#.#.#.#.#.#.",
"#.#.#.#.#.#.#.#.#.#.#.#.#.#.#.#.#.#.#.#.#.#.#.#.X.#.#.#.#.#.#.#.",
"#.#.#.#.#.#.#.#.#.#.#.#.#.( ' ' o.o.X.X.#.#.#.#.#.#.#.#.#.#.#.#.",
"#.#.#.#.#.#.#.#.#.#.#.^ ^ ( ( ' ' o.o.o.o.X.#.#.#.#.#.#.#.#.#.#.",
"#.#.#.#.#.#.#.#.#.#.U Q ^ ^ ( ' ' ' o.o.X.X.X.#.#.#.#.#.#.#.#.#.",
"#.#.#.#.#.#.#.#.#.M Y I Q ^ #.#.#.#.#.o.o.X.X.X.#.#.#.#.#.#.#.#.",
"#.#.#.#.#.#.#.#.L m M Y #.#.#.#.#.#.#.#.#.o.X.X.| #.#.#.#.#.#.#.",
"#.#.#.#.#.#.#.S G P m #.#.#.#.#.#.#.#.#.#.#.o.o.X.#.#.#.#.#.#.#.",
"#.#.#.#.#.#.#.A S J #.#.#.#.#.#.#.#.#.#.#.#.o.o.X.) #.#.#.#.#.#.",
"#.#.#.#.#.#.#.p A S #.#.#.#.#.#.#.#.#.#.#.#.#.o.' X.#.#.#.#.#.#.",
"#.#.#.#.#.#.#.t V A #.#.#.#.#.#.#.#.#.#.#.#.#.' o.X.#.#.#.#.#.#.",
"#.#.#.#.#.#.#.d j p #.#.#.#.#.#.#.#.#.#.#.#.#.' ' o.#.#.#.#.#.#.",
"#.#.#.#.#.#.9 e d r #.#.#.#.#.#.#.#.#.#.#.#.#.' ' ' #.#.#.#.#.#.",
"#.#.#.#.#.#.5 9 0 d #.#.#.#.#.#.#.#.#.#.#.#.#.O.' ' #.#.#.#.#.#.",
"#.#.#.#.#.#.v 6 9 e #.#.#.#.#.#.#.#.#.#.#.#.^ O.( ' #.#.#.#.#.#.",
"#.#.#.#.#.#.z b b I n #.#.#.#.#.#.#.#.#.#.#.Q ^ O.' #.#.#.#.#.#.",
"#.#.#.#.#.#.l c s Q ^ I #.#.#.#.#.#.#.#.#.Y U Q O.X.#.#.#.#.#.#.",
"#.#.#.#.#.#., x 7 K K K F A #.#.#.#.#.G m M Y Q | | #.#.#.#.#.#.",
"#.#.#.#.#.#.< k x s V V V V V V B A D G L m M ' | | #.#.#.#.#.#.",
"#.#.#.#.#.#.> 1 k x 9 t u u u u p p A S J P #.o.| X.#.#.#.#.#.#.",
"#.#.#.#.#.#.- > 1 k #.#.e f f f d j B A #.#.#.#.| #.#.#.#.#.#.#.",
"#.#.#.#.#.#.& ; > 1 #.#.#.#.#.#.#.#.#.#.#.#.#.#.#.#.#.#.#.#.#.#.",
"#.#.#.#.#.#.% = - > #.#.#.#.#.#.#.#.#.#.#.#.#.#.#.#.#.#.#.#.#.#.",
"#.#.#.#.#.#.# * = - #.#.#.#.#.#.#.#.#.#.#.#.#.#.#.#.#.#.#.#.#.#.",
"#.#.#.#.#.#.o $ * & #.#.#.#.#.#.#.#.#.#.#.#.#.#.#.#.#.#.#.#.#.#.",
"#.#.#.#.#.#.O @ $ % #.#.#.#.#.#.#.#.#.#.#.#.#.#.#.#.#.#.#.#.#.#.",
"#.#.#.#.#.#.. O @ # #.#.#.#.#.#.#.#.#.#.#.#.#.#.#.#.#.#.#.#.#.#.",
"#.#.#.#.#.#.4 X O @ #.#.#.#.#.#.#.#.#.#.#.#.#.#.#.#.#.#.#.#.#.#.",
"#.#.#.#.#.#.3 4 . O #.#.#.#.#.#.#.#.#.#.#.#.#.#.#.#.#.#.#.#.#.#.",
"#.#.#.#.#.#.#.3 4 . #.#.#.#.#.#.#.#.#.#.#.#.#.#.#.#.#.#.#.#.#.#.",
"#.#.#.#.#.#.#.2 3 #.#.#.#.#.#.#.#.#.#.#.#.#.#.#.#.#.#.#.#.#.#.#."
};
