/* XPM */
static char *_f8f366bc90a485de1b630905369722f[] = {
/* columns rows colors chars-per-pixel */
"16 16 47 1 ",
"  c #7635B5",
". c #6B49BC",
"X c #605EC3",
"o c #566FCA",
"O c #4D7FD0",
"+ c #8D0BA6",
"@ c #8121AE",
"# c #3C9FDA",
"$ c #35ADDF",
"% c #36ACE1",
"& c #36AEE0",
"* c #2EB9E4",
"= c #2FBAE5",
"- c #2FBAE6",
"; c #2FBBE7",
": c #32B5E4",
"> c #30BAE6",
", c #458FD4",
"< c #19DEEF",
"1 c #1EDAF0",
"2 c #1EDCF2",
"3 c #27C6E7",
"4 c #29C5E9",
"5 c #27C9EA",
"6 c #23CEEB",
"7 c #25CEED",
"8 c #23D0EC",
"9 c #23D0ED",
"0 c #23D2EF",
"q c #19E2F3",
"w c #18E5F5",
"e c #16E9F6",
"r c #16E9F7",
"t c #16EAF7",
"y c #0FF5FA",
"u c #0FF6FB",
"i c #0EF7FB",
"p c #0DF9FB",
"a c #0DFAFC",
"s c #0CFBFC",
"d c #0BFCFC",
"f c #0BFDFD",
"g c #0BFEFE",
"h c #0CFCFD",
"j c #12F0F9",
"k c #12F1F9",
"l c None",
/* pixels */
"lllllllllllgglll",
"lllllllpslllllll",
"lllllrkuasslllll",
"llll1qrlllsgllll",
"llll9llllllaglll",
"lll*4llllllaslll",
"lll$*llllllaslll",
"lll#&llllllkulll",
"lll,2tllll<rulll",
"lllO:075391walll",
"lllo,#>*>46lglll",
"lllXolllllllllll",
"lll.Xlllllllllll",
"lll .lllllllllll",
"lll@ lllllllllll",
"lll+@lllllllllll"
};
